<svg width="512" height="512" preserveAspectRatio="xMidYMid meet" xmlns="http://www.w3.org/2000/svg" viewBox="0 0 98 79">
  <!-- Same compact red gift/package mark as the reference -->
  <g fill="#EF3037" stroke="#EF3037" stroke-linejoin="round">
    <!-- left/front face -->
    <path d="M14 31.5 48.8 49.8v27.1L14 58.6Z" stroke-width="1"/>
    <!-- right/front face -->
    <path d="M48.8 49.8 84 31.3v27.3L48.8 76.9Z" stroke-width="1"/>
    <!-- upper left package flap -->
    <path d="M14 31.5 48.8 13.2 64.4 21.5 29.7 40Z"/>
    <!-- upper right package flap -->
    <path d="M48.8 13.2 84 31.3 68.3 40 33.8 21.5Z"/>
    <!-- center top diamond -->
    <path d="M33.8 21.5 49 13.3 64.4 21.5 48.8 29.8Z"/>
  </g>

  <!-- clean white folds/cuts matching the screenshot -->
  <g fill="none" stroke="#fff" stroke-width="5.2" stroke-linecap="round" stroke-linejoin="round">
    <path d="M14.5 31.8 48.8 50 83.5 31.7"/>
    <path d="M48.8 50v26"/>
    <path d="M29.7 40.1 48.8 50l19.5-10"/>
    <path d="M48.8 29.8v20.1"/>
  </g>

  <!-- restore the red vertical center edge -->
  <path d="M48.8 50v26" fill="none" stroke="#EF3037" stroke-width="4.2" stroke-linecap="round"/>
  <!-- characteristic white notch/fold marks -->
  <path d="M29.7 40.2v12.4" fill="none" stroke="#fff" stroke-width="5.2" stroke-linecap="round"/>
  <path d="M68.3 40.2v12.4" fill="none" stroke="#fff" stroke-width="5.2" stroke-linecap="round"/>
</svg>